# xmcd
#
# Track frame offsets:
#  150
#  22947
#  33910
#  54797
#  80512
#  96217
#  112215
#  133075
#  156205
#  170697
#  189280
#
# Disc length: 2900 seconds
#
# Revision: 0
# Processed by: cddbd v1.5.1PL2 Copyright (c) Steve Scherf et al.
# Submitted via: Collectorz.com_Music_Collector 6.11
#
DISCID=860b520b
DTITLE=Buddy Guy - Feels Like Rain
DYEAR=1993
DGENRE=Blues
TTITLE0=She's A Superstar
TTITLE1=J. Brown - I Go Crazy
TTITLE2=John Hiatt - Feels Like Rain
TTITLE3=McKinley Morganfield - She's Nineteen Years Old
TTITLE4=J. Ellison - Some Kind Of Wonderful
TTITLE5=E. Jones - Sufferin' Mind
TTITLE6=John Fogerty - Change In The Weather
TTITLE7=Junior Wells - I Could Cry
TTITLE8=Ray Charles - Mary Ann
TTITLE9=Marvin Gaye - Trouble Man
TTITLE10=Country Man
EXTD=
EXTT0=
EXTT1=
EXTT2=
EXTT3=
EXTT4=
EXTT5=
EXTT6=
EXTT7=
EXTT8=
EXTT9=
EXTT10=
PLAYORDER=
